<?xml version="1.0" standalone="no"?>
<!DOCTYPE svg PUBLIC "-//W3C//DTD SVG 20010904//EN"
 "http://www.w3.org/TR/2001/REC-SVG-20010904/DTD/svg10.dtd">
<svg version="1.0" xmlns="http://www.w3.org/2000/svg"
 width="512.000000pt" height="512.000000pt" viewBox="0 0 512.000000 512.000000"
 preserveAspectRatio="xMidYMid meet">

<g transform="translate(0.000000,512.000000) scale(0.100000,-0.100000)"
fill="#000000" stroke="none">
<path d="M2405 4469 c-703 -54 -1329 -506 -1609 -1161 -203 -476 -202 -1025 3
-1502 145 -337 387 -632 681 -827 299 -199 603 -303 968 -330 757 -57 1498
377 1838 1076 257 531 255 1147 -5 1679 -61 124 -153 271 -214 341 l-34 39
-112 -93 c-61 -51 -111 -96 -111 -101 0 -5 11 -21 24 -37 92 -110 203 -322
260 -494 69 -209 95 -501 65 -716 -100 -719 -667 -1284 -1389 -1383 -112 -15
-337 -16 -435 -1 -105 16 -254 54 -338 86 -121 45 -343 165 -362 194 -8 14 85
132 99 124 6 -4 29 -19 51 -33 67 -46 215 -116 311 -148 632 -212 1315 24
1681 580 140 212 217 442 238 711 l7 87 -154 0 -155 0 -6 -92 c-34 -516 -432
-951 -953 -1043 -250 -45 -494 -7 -725 111 -135 70 -130 60 -71 136 l52 65
104 -52 c126 -63 230 -93 373 -105 268 -24 532 64 731 245 l53 48 -73 74 c-40
41 -90 88 -111 105 l-37 30 -44 -39 c-126 -110 -278 -164 -461 -164 -110 0
-184 18 -295 73 -120 58 -240 178 -298 298 -55 113 -75 194 -75 310 0 116 20
197 75 310 58 120 178 240 298 298 92 45 182 72 241 72 75 0 69 -56 69 626 l0
614 -27 -1 c-16 -1 -73 -5 -128 -10z"/>
</g>
</svg>
